<svg xmlns="http://www.w3.org/2000/svg" width="640" height="463" viewBox="0 0 640 463" fill="none">
  <rect width="640" height="463" fill="#FAFAFA"/>
  <g stroke="#111111" stroke-width="8" stroke-linecap="square">
    <path d="M5 5H122V48H438V5H635V292H442V458H5V5Z"/>
    <path d="M206 48V188H5"/>
    <path d="M140 188V333"/>
    <path d="M258 188V292"/>
    <path d="M442 292V458"/>
    <path d="M88 229V333"/>
    <path d="M258 292H442"/>
  </g>
  <g stroke="#222222" stroke-width="2">
    <rect x="96" y="92" width="80" height="80" rx="40"/>
    <rect x="324" y="101" width="90" height="54"/>
    <rect x="491" y="106" width="22" height="34"/>
    <circle cx="532" cy="125" r="14"/>
    <rect x="553" y="110" width="18" height="34"/>
    <rect x="49" y="232" width="32" height="16"/>
    <rect x="88" y="232" width="36" height="16"/>
    <rect x="129" y="232" width="30" height="16"/>
    <rect x="12" y="201" width="14" height="31"/>
    <rect x="12" y="239" width="14" height="31"/>
    <rect x="12" y="278" width="14" height="28"/>
    <rect x="349" y="271" width="36" height="14"/>
    <rect x="416" y="308" width="14" height="44"/>
    <rect x="531" y="335" width="18" height="18"/>
    <rect x="531" y="357" width="18" height="18"/>
    <rect x="542" y="238" width="83" height="13"/>
    <rect x="598" y="19" width="14" height="10"/>
    <rect x="528" y="19" width="16" height="10"/>
    <rect x="57" y="19" width="19" height="10"/>
  </g>
  <g stroke="#111111" stroke-width="2" fill="none">
    <path d="M177 188A34 34 0 0 1 206 217"/>
    <path d="M258 292A38 38 0 0 0 220 254"/>
    <path d="M140 333A42 42 0 0 1 98 291"/>
    <path d="M188 333A38 38 0 0 1 150 371"/>
    <path d="M442 292A34 34 0 0 1 408 326"/>
    <path d="M321 458A38 38 0 0 1 283 420"/>
    <path d="M358 458A38 38 0 0 0 396 420"/>
  </g>
</svg>
